<svg width="140" height="56" viewBox="0 0 140 56" fill="none" xmlns="http://www.w3.org/2000/svg">
<g clip-path="url(#clip0_1_2386)">
<path d="M41.1322 0H14.3508C6.55235 0 0.230469 6.32904 0.230469 14.1363V40.9479C0.230469 48.7552 6.55235 55.0842 14.3508 55.0842H41.1322C48.9307 55.0842 55.2526 48.7552 55.2526 40.9479V14.1363C55.2526 6.32904 48.9307 0 41.1322 0Z" fill="#DBDCE6"/>
<path d="M82.4875 32.4977H72.9031L71.3056 37.0979H66.2373L74.8949 12.9714H80.5154L89.1731 37.0979H84.0652L82.4875 32.4977ZM81.1662 28.549L77.6953 18.5588L74.2046 28.628L81.1662 28.549Z" fill="white"/>
<path d="M121.792 19.8617C122.525 20.6569 123.092 21.5901 123.461 22.607C123.83 23.6239 123.994 24.7041 123.941 25.7848V36.9991H119.11V26.535C119.154 25.9152 119.076 25.2927 118.88 24.7031C118.684 24.1136 118.373 23.5687 117.966 23.0997C117.562 22.6954 117.077 22.381 116.544 22.1769C116.01 21.9727 115.44 21.8835 114.87 21.9151C114.297 21.8869 113.724 21.9775 113.188 22.1814C112.652 22.3853 112.163 22.6979 111.754 23.0997C111.346 23.5687 111.036 24.1136 110.84 24.7031C110.643 25.2927 110.565 25.9152 110.61 26.535V37.0978H105.778V26.535C105.823 25.9152 105.745 25.2927 105.549 24.7031C105.352 24.1136 105.042 23.5687 104.634 23.0997C104.23 22.6964 103.745 22.3827 103.212 22.1786C102.678 21.9746 102.108 21.8848 101.538 21.9151C100.959 21.8837 100.38 21.9728 99.8366 22.1767C99.2935 22.3806 98.7985 22.6948 98.3827 23.0997C97.972 23.5671 97.6578 24.1113 97.4581 24.7009C97.2584 25.2905 97.1772 25.9139 97.2192 26.535V37.0978H92.4072V17.9664H97.2192V20.2764C97.8571 19.44 98.6809 18.7641 99.6252 18.302C100.645 17.8911 101.742 17.7091 102.84 17.7689C104.213 17.7527 105.568 18.0783 106.784 18.7166C107.934 19.3446 108.878 20.2904 109.506 21.4412C110.145 20.3214 111.08 19.3993 112.207 18.7759C113.718 17.9503 115.449 17.6188 117.157 17.8277C118.865 18.0366 120.465 18.7755 121.733 19.9407L121.792 19.8617Z" fill="white"/>
<path d="M145.516 26.7718C146.377 27.8455 146.837 29.1859 146.818 30.5625C146.843 31.7631 146.514 32.9444 145.871 33.9584C145.203 34.9804 144.25 35.7836 143.13 36.2684C141.791 36.8402 140.346 37.1228 138.89 37.0976H128.517V13.0106H138.377C139.819 12.9782 141.251 13.2542 142.578 13.8201C143.675 14.2767 144.614 15.0456 145.28 16.0314C145.889 16.9852 146.205 18.0976 146.187 19.2298C146.23 20.5023 145.833 21.7506 145.063 22.7639C144.289 23.705 143.252 24.3926 142.085 24.7382C143.444 24.959 144.669 25.6853 145.516 26.7718ZM133.348 22.9416H137.746C138.696 23.0069 139.639 22.7342 140.408 22.1716C140.72 21.8933 140.966 21.5482 141.126 21.162C141.287 20.7757 141.358 20.3583 141.335 19.9406C141.347 19.533 141.27 19.1279 141.11 18.753C140.95 18.3781 140.71 18.0423 140.408 17.7688C139.642 17.1991 138.699 16.9194 137.746 16.979H133.348V22.9416ZM140.941 32.3197C141.272 32.032 141.532 31.6726 141.703 31.2689C141.874 30.8652 141.95 30.4278 141.927 29.99C141.952 29.5308 141.873 29.072 141.695 28.6479C141.518 28.2239 141.246 27.8457 140.902 27.5418C140.099 26.9312 139.108 26.6235 138.101 26.6731H133.348V33.1489H138.2C139.183 33.2112 140.156 32.9168 140.941 32.3197Z" fill="white"/>
<path d="M150.585 22.3298C151.286 20.9068 152.373 19.7096 153.721 18.8747C155.068 18.0986 156.605 17.7156 158.158 17.7691C159.458 17.7386 160.745 18.0302 161.905 18.618C162.909 19.1446 163.784 19.8861 164.469 20.7898V17.9665H169.32V37.0979H164.469V34.2943C163.797 35.2251 162.919 35.9885 161.905 36.5253C160.619 37.1547 159.195 37.4501 157.765 37.3846C156.335 37.319 154.944 36.8946 153.721 36.1502C152.375 35.295 151.291 34.0861 150.585 32.6556C149.794 31.0414 149.402 29.2606 149.441 27.4631C149.401 25.6845 149.794 23.9228 150.585 22.3298ZM163.779 24.5213C163.364 23.6911 162.712 23.0036 161.905 22.547C161.146 22.1008 160.281 21.8688 159.4 21.8757C158.529 21.8711 157.672 22.0958 156.916 22.5272C156.132 23.0014 155.497 23.6852 155.081 24.5016C154.588 25.4158 154.343 26.444 154.372 27.4829C154.349 28.5337 154.593 29.5732 155.081 30.5036C155.506 31.3201 156.147 32.0034 156.935 32.4779C157.675 32.9364 158.53 33.176 159.4 33.169C160.281 33.1758 161.146 32.9439 161.905 32.4977C162.707 32.0345 163.358 31.3488 163.779 30.5233C164.259 29.5909 164.497 28.5517 164.469 27.5026C164.492 26.4666 164.255 25.4414 163.779 24.5213Z" fill="white"/>
<path d="M177.149 36.545C175.983 36.0487 174.964 35.2599 174.191 34.2548C173.492 33.3278 173.08 32.2156 173.008 31.0563H177.879C177.917 31.4199 178.033 31.7709 178.22 32.0847C178.408 32.3985 178.662 32.6674 178.964 32.8727C179.627 33.317 180.399 33.5688 181.197 33.6002C181.994 33.6315 182.784 33.4412 183.48 33.0504C183.716 32.8961 183.91 32.6854 184.044 32.4372C184.178 32.189 184.249 31.9112 184.249 31.6289C184.252 31.3291 184.163 31.0357 183.993 30.7885C183.824 30.5412 183.583 30.3521 183.302 30.2468C182.329 29.8147 181.319 29.4711 180.285 29.2202C179.089 28.9556 177.916 28.5991 176.775 28.154C175.871 27.7886 175.072 27.2053 174.447 26.4561C173.747 25.596 173.395 24.5037 173.461 23.3959C173.45 22.3568 173.767 21.3407 174.369 20.4936C175.037 19.5757 175.944 18.8587 176.992 18.4205C178.241 17.9023 179.584 17.6469 180.936 17.6703C182.895 17.5649 184.826 18.1674 186.379 19.3682C187.046 19.9404 187.589 20.6442 187.972 21.4357C188.356 22.2273 188.572 23.0894 188.607 23.9684H183.993C183.975 23.618 183.881 23.2756 183.718 22.9653C183.554 22.655 183.325 22.3841 183.046 22.1718C182.396 21.6965 181.602 21.4595 180.798 21.5005C180.109 21.4687 179.425 21.633 178.826 21.9743C178.604 22.1185 178.423 22.3183 178.302 22.5538C178.181 22.7892 178.124 23.0523 178.135 23.3169C178.13 23.627 178.217 23.9317 178.386 24.192C178.555 24.4522 178.797 24.6562 179.082 24.7779C180.041 25.2276 181.046 25.5718 182.08 25.8046C183.238 26.0887 184.377 26.4448 185.491 26.8707C186.395 27.2453 187.194 27.8349 187.818 28.5884C188.517 29.444 188.881 30.5245 188.844 31.6289C188.859 32.6929 188.542 33.7351 187.937 34.6101C187.257 35.4938 186.351 36.1762 185.314 36.5845C182.672 37.5979 179.741 37.5555 177.13 36.466L177.149 36.545Z" fill="white"/>
<path d="M195.924 36.5449C194.76 36.0536 193.747 35.2636 192.986 34.2547C192.273 33.3349 191.86 32.2185 191.802 31.0562H196.654C196.695 31.4188 196.813 31.7683 197 32.0816C197.187 32.3948 197.439 32.6645 197.738 32.8726C198.421 33.379 199.256 33.6368 200.105 33.6031C200.862 33.6495 201.614 33.4561 202.255 33.0503C202.491 32.896 202.685 32.6853 202.819 32.4371C202.953 32.1889 203.024 31.9111 203.024 31.6288C203.027 31.329 202.937 31.0356 202.768 30.7884C202.599 30.5412 202.357 30.3521 202.077 30.2467C201.104 29.8146 200.094 29.471 199.06 29.2201C197.87 28.9558 196.703 28.5993 195.569 28.1539C194.661 27.787 193.855 27.2043 193.222 26.456C192.53 25.5914 192.179 24.5024 192.236 23.3958C192.232 22.3547 192.556 21.3388 193.163 20.4935C193.84 19.5677 194.762 18.8497 195.825 18.4204C197.082 17.9359 198.424 17.7142 199.77 17.7689C201.729 17.6635 203.66 18.266 205.213 19.4668C205.887 20.0348 206.434 20.7373 206.822 21.5295C207.209 22.3216 207.426 23.1859 207.461 24.0671H202.826C202.809 23.7166 202.715 23.3743 202.552 23.0639C202.388 22.7536 202.159 22.4828 201.88 22.2704C201.232 21.7892 200.436 21.5515 199.632 21.5991C198.942 21.5651 198.258 21.7295 197.659 22.073C197.419 22.2325 197.227 22.4542 197.102 22.7145C196.977 22.9748 196.926 23.2639 196.952 23.5514C196.978 23.8388 197.082 24.1137 197.251 24.347C197.421 24.5803 197.651 24.7633 197.916 24.8765C198.872 25.3328 199.878 25.6773 200.913 25.9032C202.071 26.1903 203.21 26.5463 204.325 26.9693C205.226 27.3494 206.023 27.9381 206.652 28.687C207.306 29.5128 207.66 30.5359 207.658 31.5893C207.673 32.6533 207.356 33.6955 206.751 34.5706C206.076 35.4586 205.168 36.142 204.128 36.5449C201.486 37.5584 198.556 37.516 195.944 36.4264L195.924 36.5449Z" fill="white"/>
<path d="M211.602 22.3299C212.303 20.9069 213.39 19.7097 214.738 18.8748C216.055 18.1155 217.556 17.7331 219.076 17.7692C220.376 17.7387 221.663 18.0304 222.823 18.6182C223.831 19.1392 224.707 19.8816 225.387 20.7899V17.9666H230.258V37.098H225.407V34.2944C224.739 35.2297 223.861 35.9941 222.843 36.5255C221.679 37.1233 220.384 37.4218 219.076 37.3942C217.522 37.4104 215.995 36.9786 214.678 36.1503C213.355 35.2868 212.291 34.0787 211.602 32.6557C210.804 31.0432 210.405 29.2624 210.438 27.4632C210.405 25.6831 210.805 23.9215 211.602 22.3299ZM224.776 24.5214C224.369 23.6926 223.723 23.0049 222.922 22.5471C222.156 22.1002 221.284 21.8683 220.398 21.8758C219.512 21.8684 218.642 22.1036 217.881 22.5561C217.119 23.0085 216.496 23.6608 216.079 24.4425C215.585 25.3567 215.34 26.3848 215.369 27.4237C215.346 28.4746 215.59 29.5141 216.079 30.4445C216.503 31.261 217.145 31.9443 217.932 32.4188C218.673 32.8773 219.527 33.1168 220.398 33.1098C221.284 33.1173 222.156 32.8854 222.922 32.4386C223.719 31.9751 224.363 31.289 224.776 30.4642C225.269 29.5365 225.508 28.4939 225.466 27.4435C225.466 26.4193 225.201 25.4125 224.697 24.5214H224.776Z" fill="white"/>
<path d="M234.893 22.3297C235.6 20.9297 236.688 19.7585 238.031 18.9515C239.375 18.1444 240.919 17.7345 242.486 17.769C243.716 17.758 244.931 18.0352 246.035 18.5785C247.092 19.0657 248.013 19.8046 248.718 20.7305V11.5498H253.608V37.0978H248.718V34.2548C248.097 35.2191 247.233 36.0024 246.213 36.5253C245.051 37.1287 243.755 37.4275 242.446 37.394C240.892 37.408 239.366 36.9764 238.048 36.1501C236.692 35.3016 235.6 34.0915 234.893 32.6555C234.095 31.043 233.696 29.2622 233.729 27.463C233.696 25.6828 234.096 23.9213 234.893 22.3297ZM248.067 24.5212C247.654 23.6965 247.01 23.0103 246.213 22.5469C245.639 22.2065 245.002 21.9872 244.34 21.9025C243.678 21.8178 243.006 21.8695 242.365 22.0544C241.724 22.2393 241.128 22.5536 240.613 22.9778C240.098 23.402 239.675 23.9273 239.37 24.5212C238.876 25.4354 238.631 26.4636 238.66 27.5025C238.637 28.5534 238.881 29.5929 239.37 30.5233C239.794 31.3398 240.436 32.023 241.223 32.4976C241.964 32.9561 242.818 33.1956 243.689 33.1886C244.575 33.1961 245.447 32.9642 246.213 32.5173C247.005 32.0478 247.648 31.3632 248.067 30.543C248.548 29.6105 248.785 28.5713 248.757 27.5222C248.784 26.4796 248.546 25.4472 248.067 24.5212Z" fill="white"/>
<path d="M261.852 36.1699C260.394 35.3676 259.191 34.1701 258.381 32.7148C257.53 31.1187 257.103 29.331 257.139 27.5223C257.096 25.7143 257.539 23.9279 258.42 22.3495C259.258 20.8951 260.479 19.6997 261.951 18.8944C263.494 18.0898 265.209 17.6697 266.95 17.6697C268.69 17.6697 270.405 18.0898 271.949 18.8944C273.429 19.6886 274.653 20.8867 275.479 22.3495C276.367 23.9263 276.816 25.7125 276.781 27.5223C276.814 29.343 276.35 31.1383 275.44 32.7148C274.593 34.1758 273.357 35.3721 271.87 36.1699C270.319 37.0016 268.581 37.423 266.822 37.394C265.086 37.431 263.372 37.0087 261.852 36.1699ZM269.287 32.5568C270.079 32.0941 270.717 31.4072 271.121 30.5825C271.604 29.6156 271.842 28.5439 271.811 27.463C271.91 25.9347 271.399 24.4294 270.391 23.2774C269.937 22.8061 269.391 22.4332 268.788 22.1819C268.184 21.9306 267.535 21.8062 266.881 21.8164C266.235 21.8035 265.594 21.927 265 22.1787C264.405 22.4305 263.87 22.8048 263.43 23.2774C262.933 23.8488 262.554 24.5126 262.313 25.2308C262.073 25.9489 261.977 26.7075 262.029 27.463C261.924 28.9881 262.412 30.4949 263.39 31.6684C263.825 32.1425 264.356 32.518 264.948 32.77C265.54 33.022 266.179 33.1445 266.822 33.1294C267.678 33.1469 268.525 32.9501 269.287 32.5568Z" fill="white"/>
<path d="M287.568 18.5588C288.623 17.9996 289.807 17.7273 291 17.7691V22.8431H289.738C288.5 22.7498 287.273 23.1309 286.306 23.9093C285.87 24.4198 285.541 25.0138 285.341 25.6553C285.141 26.2968 285.074 26.9723 285.143 27.6408V37.1769H280.331V17.9665H285.143V20.9478C285.737 19.9597 286.572 19.138 287.568 18.5588Z" fill="white"/>
<path d="M27.978 15.3602C27.978 15.5774 27.978 15.8143 27.978 16.0315V24.3435C27.978 24.4422 27.978 24.5409 27.978 24.6396L27.8597 25.0147C27.7779 25.1871 27.6716 25.3467 27.5441 25.4886L27.4061 25.6268L27.2483 25.7452L27.0905 25.8637C26.7746 26.0515 26.4126 26.1472 26.0453 26.1401H10.9783C10.7219 26.1433 10.4674 26.0963 10.2289 26.0019H10.0514L9.83449 25.844H9.73588C9.52046 25.6546 9.34887 25.4205 9.23307 25.1579C9.11727 24.8954 9.06004 24.6107 9.06537 24.3237V16.0315C9.06348 14.0657 9.71575 12.1553 10.9192 10.602L11.1953 10.2861C11.3771 10.0677 11.5748 9.86317 11.7869 9.67409L11.9249 9.53589C12.2973 9.20534 12.6927 8.90184 13.1082 8.62769C13.3402 8.47056 13.5842 8.33192 13.8379 8.21308L14.2323 8.01564L14.824 7.77872L15.2184 7.64052H15.4748L15.8495 7.5418L16.5003 7.42334H16.7369H17.1708H20.0501H20.4445C20.7634 7.46321 21.0795 7.52255 21.3911 7.60103H21.7067H22.0222L22.3772 7.71949L22.9688 7.95641L23.2646 8.09462C23.5715 8.25325 23.8679 8.4313 24.1521 8.62769C24.5492 8.8707 24.9194 9.15529 25.2564 9.47666L25.4931 9.69384L25.7101 9.91101L25.9862 10.2269L26.2622 10.5428C26.3099 10.6187 26.3626 10.6913 26.42 10.76L26.7553 11.2338C26.7955 11.2887 26.8286 11.3484 26.8539 11.4115L27.0708 11.7866C27.0815 11.852 27.0815 11.9187 27.0708 11.9841L27.1694 12.1618L27.3469 12.5566V12.7541C27.4793 13.0892 27.5913 13.432 27.6822 13.7807C27.7602 14.0594 27.8195 14.3431 27.8597 14.6297C27.9188 14.9258 27.9583 15.143 27.978 15.3602ZM27.978 29.6545C27.9473 29.4837 27.8942 29.3177 27.8202 29.1609C27.7614 28.9999 27.6818 28.8472 27.5836 28.7068C27.5422 28.6327 27.4889 28.566 27.4258 28.5093C27.3509 28.4079 27.2649 28.3152 27.1694 28.2329L26.9722 28.0552L26.6567 27.8578C26.2606 27.6517 25.8211 27.5434 25.3748 27.5419H11.57C11.3025 27.5412 11.0365 27.5811 10.7811 27.6604H10.5445C10.3869 27.7341 10.2352 27.8199 10.0909 27.917L9.87394 28.0552C9.58738 28.3001 9.35514 28.6022 9.19211 28.9422C9.02909 29.2822 8.93888 29.6526 8.9273 30.0296V43.85C8.92447 44.2761 9.02606 44.6964 9.22314 45.0741C9.26245 45.1443 9.30868 45.2105 9.36117 45.2715C9.38225 45.3307 9.41589 45.3846 9.45978 45.4295C9.56948 45.5689 9.69526 45.6948 9.83449 45.8046L10.0514 45.9625L10.1895 46.0612H10.3472H10.505H10.7416C10.9971 46.1405 11.2631 46.1804 11.5305 46.1797H25.3354C25.7369 46.1769 26.1333 46.0894 26.4989 45.923L26.7158 45.8046H26.8342L27.0314 45.6466C27.1326 45.5716 27.2252 45.4855 27.3075 45.39V45.2913L27.4652 45.0938C27.6297 44.8371 27.7559 44.5578 27.8399 44.2646C27.8509 44.1794 27.8509 44.0931 27.8399 44.0079C27.8508 43.9625 27.8508 43.9151 27.8399 43.8697C27.8497 43.7845 27.8497 43.6983 27.8399 43.6131V30.0493C27.8846 29.9075 27.9176 29.7622 27.9385 29.615L27.978 29.6545ZM48.2119 35.0247C48.1317 34.4931 47.9997 33.9707 47.8175 33.4649L47.6795 33.1096C47.5009 32.6732 47.29 32.2508 47.0484 31.846C47.0419 31.7869 47.0419 31.7273 47.0484 31.6683L46.7723 31.2734L46.6145 31.076L46.2793 30.6614C45.4382 29.6863 44.3919 28.9097 43.2156 28.3874C42.0392 27.8652 40.7619 27.6101 39.4754 27.6406H31.1925C30.9572 27.6386 30.7235 27.6787 30.5023 27.7591H30.3248H30.1473C29.8733 27.9398 29.6485 28.1861 29.4936 28.4757C29.3386 28.7653 29.2583 29.089 29.2598 29.4175V44.5213C29.2583 44.8498 29.3386 45.1735 29.4936 45.4631C29.6485 45.7527 29.8733 45.999 30.1473 46.1797L30.3248 46.2784H30.5023C30.7235 46.3588 30.9572 46.3989 31.1925 46.3969H39.4754C41.2258 46.4028 42.9373 45.8799 44.386 44.8964C44.5649 44.7826 44.7361 44.6573 44.8988 44.5213L45.234 44.2646L45.3918 44.1066L45.6876 43.8302L46.1215 43.3564C46.3995 43.0379 46.6565 42.7016 46.8906 42.3495C46.8841 42.2904 46.8841 42.2308 46.8906 42.1718C47.1454 41.7406 47.3695 41.292 47.5611 40.8292C47.5533 40.7637 47.5533 40.6974 47.5611 40.6318C47.9099 39.6628 48.09 38.6411 48.0936 37.6111V36.3277C48.15 35.8957 48.1763 35.4603 48.1725 35.0247H48.2119ZM29.8909 25.8242C30.2577 26.1579 30.7364 26.3412 31.232 26.3376H36.7539C37.1212 26.3447 37.4832 26.249 37.7991 26.0611L37.9569 25.9427L38.1147 25.8242L38.2527 25.686C38.3802 25.5442 38.4865 25.3846 38.5683 25.2122C38.6283 25.0946 38.6683 24.9678 38.6866 24.8371C38.6964 24.7386 38.6964 24.6394 38.6866 24.5409V23.7709C38.7062 23.4883 38.7062 23.2046 38.6866 22.9219C38.6866 22.8035 38.6866 22.685 38.6866 22.5863C38.6866 22.4876 38.6866 22.3494 38.6866 22.2507C38.6866 22.1519 38.6866 22.0335 38.6866 21.915C38.6866 21.7966 38.6866 21.7176 38.588 21.5991L38.3513 20.9871C38.3443 20.9347 38.3443 20.8815 38.3513 20.8291C38.3513 20.6909 38.2133 20.5527 38.1147 20.3948C38.0364 20.2522 37.9508 20.1139 37.8583 19.9802C36.9855 18.6218 35.6566 17.6205 34.1113 17.1569H33.7957C33.1937 16.9807 32.5691 16.8942 31.9419 16.9002H31.1925C30.8252 16.8931 30.4632 16.9888 30.1473 17.1766L29.9896 17.2951L29.8515 17.4135C29.717 17.5541 29.604 17.7137 29.5162 17.8874V17.9861L29.3979 18.3612C29.3979 18.4599 29.3979 18.5586 29.3979 18.6574V24.2053C29.3964 24.4698 29.4479 24.732 29.5496 24.9762C29.6512 25.2204 29.8008 25.4416 29.9896 25.6268L29.8909 25.8242Z" fill="url(#paint0_linear_1_2386)"/>
</g>
<defs>
<linearGradient id="paint0_linear_1_2386" x1="9.69643" y1="45.8638" x2="36.7647" y2="18.8063" gradientUnits="userSpaceOnUse">
<stop stop-color="#304492"/>
<stop offset="1" stop-color="#3EB2EC"/>
</linearGradient>
<clipPath id="clip0_1_2386">
<rect width="140" height="55.0842" fill="white" transform="translate(0.230469)"/>
</clipPath>
</defs>
</svg>
